<svg xmlns="http://www.w3.org/2000/svg" xmlns:xlink="http://www.w3.org/1999/xlink" viewBox="0 0 522.82 93.08"><defs><style>.cls-1{isolation:isolate;}.cls-2{fill:#2e2e2e;}.cls-3,.cls-4,.cls-5{mix-blend-mode:multiply;}.cls-3{fill:url(#linear-gradient);}.cls-4{fill:url(#linear-gradient-2);}.cls-5{fill:url(#linear-gradient-3);}</style><linearGradient id="linear-gradient" x1="6.55" y1="46.54" x2="67.88" y2="46.54" gradientUnits="userSpaceOnUse"><stop offset="0" stop-color="#92278f"/><stop offset="1" stop-color="#e6448c"/></linearGradient><linearGradient id="linear-gradient-2" x1="0" y1="51.16" x2="71.03" y2="51.16" xlink:href="#linear-gradient"/><linearGradient id="linear-gradient-3" x1="4.75" y1="56.79" x2="73.36" y2="56.79" xlink:href="#linear-gradient"/></defs><g class="cls-1"><g id="Ebene_2" data-name="Ebene 2"><g id="Ebene_1-2" data-name="Ebene 1"><path class="cls-2" d="M99.78,25.07h5.32l21.18,34.06V25.07h.92V68.52H126L100.7,28.06V68.52h-.92Z"/><path class="cls-2" d="M148.55,30.13l2.32-6.23h.92l16.94,44.62h-5.65l-6.81-17.86h-14.7l-6.82,17.86h-.83ZM156,49.82,149,31.3,141.9,49.82Z"/><path class="cls-2" d="M175.46,25.07h5.23V68.52h-5.23Z"/><path class="cls-2" d="M190,25.07h5.23V67.69H214v.83H190Z"/><path class="cls-2" d="M217.94,56.47c-.16-3,1.33-4.73,3.24-4.73a2.89,2.89,0,0,1,3,2.9c0,3.08-.49,3.66-.49,6.9,0,2.82,4.15,6.81,9.38,6.81,4.49,0,10.06-1.91,10.06-6.81,0-14.71-23.27-14.87-23.27-25.76,0-5.65,4.16-11.38,13.05-11.38,6.64,0,12.71,4.32,12.71,8.64,0,2.33-1.33,3.33-3,3.33s-3.08-1.25-3.08-4c0-3.82-1.74-7.15-6.81-7.15-5.65,0-9.55,3.66-9.55,7.15,0,9,23.76,11.88,23.76,23.84,0,10.3-9,13-13.88,13C224.76,69.18,218.28,63,217.94,56.47Z"/><path class="cls-2" d="M276.8,25.07h24v.83H282V46.83h12v.92H282V68.52H276.8Z"/><path class="cls-2" d="M313.36,30.13l2.32-6.23h.92l16.94,44.62h-5.65l-6.81-17.86h-14.7l-6.81,17.86h-.84Zm7.47,19.69L313.77,31.3l-7.06,18.52Z"/><path class="cls-2" d="M337.28,46.75c0-13.29,10.22-22.35,21.35-22.35,4.41,0,9.56,1.08,12.38,4.41,1.91,2.07,1.16,4.23-.75,5-2.24.83-4-1.16-4-3.24,0-3.49-3.32-5.32-7.64-5.32-7.31,0-15.2,4.74-15.2,21s7.23,22,14.54,22c5.9,0,12-2.25,14.12-11.47L373,57c-1.91,8-7,12.21-14.37,12.21C345.67,69.18,337.28,60.13,337.28,46.75Z"/><path class="cls-2" d="M391.63,25.9H375.76v-.83h37v.83H396.86V68.6h-5.23Z"/><path class="cls-2" d="M411.33,46.75c0-13,9.81-22.35,20.69-22.35s20.69,9.31,20.69,22.35S444.65,69.18,432,69.18,411.33,59.88,411.33,46.75Zm35.23-.5c0-15.78-7.39-21-14.54-21s-14.54,5.24-14.54,21c0,16.29,7.23,22.1,14.54,22.1S446.56,62.54,446.56,46.25Z"/><path class="cls-2" d="M460.68,25.07h11.88c7.72,0,12.79,4.15,12.79,10.21,0,5.07-3.49,8.65-8.89,9.89,6.4,1.16,10.3,5.49,10.3,11.47.09,4.48,0,7.72,1,9.47a2.25,2.25,0,0,0,2,1.33,4.26,4.26,0,0,0,2.83-1.17L493,67a7.17,7.17,0,0,1-7.32.92c-3.07-1.25-5-4-5-11.3,0-8.39-4.49-11-8.14-11h-6.65V68.52h-5.23Zm10.8,19.69c3.65,0,7.81-2.83,7.81-9.48,0-7.22-3.74-9.38-7.81-9.38h-5.57V44.76Z"/><path class="cls-2" d="M505,50.07l-14.54-25h6.23l13,22.76L521.9,25.07h.92L510.27,48.66V68.52H505Z"/><path class="cls-3" d="M65.33,74.09C62.11,82.47,55.35,91.55,41,92.9c-1.2.12-2.46.18-3.79.18a38.32,38.32,0,0,1-5-.31C18.73,91,12.26,82.26,9.14,74.15a39.71,39.71,0,0,1-2.48-17c.08-1.14.2-2.27.37-3.4q.56-3.61,1.18-6.91c3.52-18.66,8.65-29.89,13.63-36.64C29.73-.55,37.22,0,37.22,0S49-.87,58.62,20.81A107.08,107.08,0,0,1,64.57,39c1.05,4.4,2,9.29,2.84,14.73.16,1.07.28,2.14.36,3.22A39.77,39.77,0,0,1,65.33,74.09Z"/><path class="cls-4" d="M67.77,56.94a39.77,39.77,0,0,1-2.44,17.15C62.11,82.47,55.35,91.55,41,92.9a25,25,0,0,1-4.88-1,32.63,32.63,0,0,1-8-3.7A40,40,0,0,1,14.25,73.09a170.53,170.53,0,0,1-7.59-16c-.71-1.72-1.34-3.38-1.91-5h0C-6.73,20.26,6.22,12,6.22,12s4.83-4.2,15.62-1.8C28,11.54,36.1,15.07,46.36,22.78A161.19,161.19,0,0,1,62.58,36.9c.69.67,1.35,1.38,2,2.09A39.53,39.53,0,0,1,71,48.87,70,70,0,0,1,67.77,56.94Z"/><path class="cls-5" d="M71,48.87a70,70,0,0,1-3.26,8.07A132.81,132.81,0,0,1,54.44,78.66,36.53,36.53,0,0,1,40,90.43a33.5,33.5,0,0,1-3.84,1.43,26.42,26.42,0,0,1-4,.91C18.73,91,12.26,82.26,9.14,74.15a39.71,39.71,0,0,1-2.48-17c-.71-1.72-1.34-3.38-1.91-5h0a35.05,35.05,0,0,1,3.46-5.31,36.9,36.9,0,0,1,7.3-7.09c12.9-9.47,23-14.5,30.85-16.94a38.58,38.58,0,0,1,12.26-2c7.91.18,11,3.75,11,3.75S77,30.93,71,48.87Z"/></g></g></g></svg>